<svg width="512" height="512" viewBox="0 0 512 512" fill="none" xmlns="http://www.w3.org/2000/svg">
<path d="M424.369 188.083C427.035 184.854 431 187.875 431 192.979V406C431 433.604 416.303 456 398.188 456H113.812C95.6973 456 81 433.604 81 406V193.083C81 187.875 84.8965 184.958 87.6309 188.187C102.943 206.312 123.246 229.333 192.973 306.521C207.396 322.562 231.732 356.312 256 356.104C280.404 356.417 305.219 321.937 319.096 306.521C388.822 229.333 409.057 206.208 424.369 188.083ZM256 322.667C271.859 323.083 294.691 292.25 306.176 279.542C396.889 179.229 403.793 170.479 424.711 145.479C428.676 140.792 431 133.5 431 125.792V106C431 78.3958 416.303 56 398.188 56H113.812C95.6973 56 81 78.3958 81 106V125.792C81 133.5 83.3242 140.687 87.2891 145.479C108.207 170.375 115.111 179.229 205.824 279.542C217.309 292.25 240.141 323.083 256 322.667Z" fill="white"/>
</svg>
