<svg width="640" height="512" viewBox="0 0 640 512" fill="none" xmlns="http://www.w3.org/2000/svg">
<path d="M250 256C283.852 256 311.25 211.268 311.25 156C311.25 100.732 283.852 56 250 56C216.148 56 188.75 100.732 188.75 156C188.75 211.268 216.148 256 250 256ZM292 284.571H287.461C276.086 293.5 263.453 298.857 250 298.857C236.547 298.857 223.969 293.5 212.539 284.571H208C173.219 284.571 145 330.643 145 387.429V413.143C145 436.804 156.758 456 171.25 456H328.75C343.242 456 355 436.804 355 413.143V387.429C355 330.643 326.781 284.571 292 284.571ZM407.5 256C436.484 256 460 217.607 460 170.286C460 122.964 436.484 84.5714 407.5 84.5714C378.516 84.5714 355 122.964 355 170.286C355 217.607 378.516 256 407.5 256ZM433.75 284.571H431.672C424.07 288.857 416.031 291.714 407.5 291.714C398.969 291.714 390.93 288.857 383.328 284.571H381.25C370.094 284.571 359.812 289.839 350.789 298.321C364.133 321.804 372.5 352.964 372.5 387.429V421.714C372.5 423.679 372.227 425.554 372.172 427.429H468.75C483.242 427.429 495 408.232 495 384.571C495 329.304 467.602 284.571 433.75 284.571V284.571Z" fill="white"/>
</svg>
