<svg width="496" height="512" viewBox="0 0 496 512" fill="none" xmlns="http://www.w3.org/2000/svg">
<path d="M248 56C151.327 56 73 145.516 73 256C73 366.484 151.327 456 248 456C344.673 456 423 366.484 423 256C423 145.516 344.673 56 248 56ZM333.948 193.016L305.228 347.694C303.111 358.661 297.395 361.323 289.421 356.161L245.671 319.306L224.573 342.532C222.244 345.194 220.268 347.452 215.752 347.452L218.857 296.565L299.935 212.855C303.464 209.306 299.159 207.29 294.502 210.839L194.3 282.935L151.115 267.532C141.73 264.145 141.518 256.806 153.091 251.645L321.81 177.29C329.643 174.065 336.488 179.468 333.948 193.016V193.016Z" fill="white"/>
</svg>
