<svg width="512" height="512" viewBox="0 0 512 512" fill="none" xmlns="http://www.w3.org/2000/svg">
<path d="M256 81C159.327 81 81 159.327 81 256C81 352.673 159.327 431 256 431C352.673 431 431 352.673 431 256C431 159.327 352.673 81 256 81ZM321.265 301.867L307.152 319.508C306.226 320.666 305.081 321.63 303.782 322.345C302.483 323.061 301.056 323.513 299.583 323.677C298.109 323.841 296.617 323.713 295.193 323.3C293.769 322.888 292.44 322.198 291.282 321.272L244.004 286.187C240.701 283.543 238.034 280.189 236.202 276.374C234.37 272.56 233.419 268.382 233.419 264.15V154.387C233.419 151.393 234.609 148.521 236.726 146.404C238.844 144.286 241.715 143.097 244.71 143.097H267.29C270.285 143.097 273.156 144.286 275.274 146.404C277.391 148.521 278.581 151.393 278.581 154.387V256L319.508 285.99C320.666 286.917 321.631 288.063 322.346 289.362C323.062 290.662 323.514 292.09 323.677 293.564C323.84 295.039 323.711 296.531 323.297 297.956C322.883 299.38 322.193 300.709 321.265 301.867Z" fill="white"/>
</svg>
