<svg width="448" height="512" viewBox="0 0 448 512" fill="none" xmlns="http://www.w3.org/2000/svg">
<path d="M399 113.143V148.857C399 180.33 320.615 206 224 206C127.385 206 49 180.33 49 148.857V113.143C49 81.6695 127.385 56 224 56C320.615 56 399 81.6695 399 113.143ZM399 193.5V273.857C399 305.33 320.615 331 224 331C127.385 331 49 305.33 49 273.857V193.5C86.5977 219.393 155.413 231.447 224 231.447C292.587 231.447 361.402 219.393 399 193.5ZM399 318.5V398.857C399 430.33 320.615 456 224 456C127.385 456 49 430.33 49 398.857V318.5C86.5977 344.393 155.413 356.447 224 356.447C292.587 356.447 361.402 344.393 399 318.5Z" fill="white"/>
</svg>
