<svg width="15" height="14" viewBox="0 0 15 14" fill="none" xmlns="http://www.w3.org/2000/svg">
<path d="M7.88283 1.167C6.72897 1.167 5.60103 1.50916 4.64163 2.15021C3.68224 2.79125 2.93448 3.7024 2.49292 4.76842C2.05136 5.83445 1.93582 7.00747 2.16093 8.13916C2.38604 9.27084 2.94167 10.3104 3.75757 11.1263C4.57347 11.9422 5.61299 12.4978 6.74467 12.7229C7.87636 12.948 9.04938 12.8325 10.1154 12.3909C11.1814 11.9494 12.0926 11.2016 12.7336 10.2422C13.3747 9.2828 13.7168 8.15486 13.7168 7.001C13.7152 5.45421 13.1001 3.97124 12.0063 2.87749C10.9126 1.78375 9.42962 1.16859 7.88283 1.167ZM8.46583 9.917H7.29883V6.417H8.46583V9.917ZM8.46583 5.25H7.29883V4.084H8.46583V5.25Z" fill="#53585D"/>
</svg>
