<svg width="448" height="512" viewBox="0 0 448 512" fill="none" xmlns="http://www.w3.org/2000/svg">
<path d="M70.3359 351.804L145.336 266.089C147.678 263.41 148.994 259.778 148.994 255.991C148.994 252.204 147.678 248.572 145.336 245.893L70.3359 160.179C62.4922 151.232 49 157.589 49 170.286V341.714C49 354.491 62.5391 360.732 70.3359 351.804ZM386.5 398.857H61.5C58.1848 398.857 55.0054 400.362 52.6612 403.041C50.317 405.72 49 409.354 49 413.143V441.714C49 445.503 50.317 449.137 52.6612 451.816C55.0054 454.495 58.1848 456 61.5 456H386.5C389.815 456 392.995 454.495 395.339 451.816C397.683 449.137 399 445.503 399 441.714V413.143C399 409.354 397.683 405.72 395.339 403.041C392.995 400.362 389.815 398.857 386.5 398.857ZM388.977 284.571H209.023C207.707 284.57 206.403 284.866 205.186 285.441C203.97 286.016 202.864 286.86 201.934 287.924C201.003 288.988 200.264 290.251 199.761 291.642C199.258 293.032 198.999 294.522 199 296.027V330.259C198.999 331.764 199.258 333.254 199.761 334.644C200.264 336.034 201.003 337.298 201.934 338.362C202.864 339.426 203.97 340.269 205.186 340.845C206.403 341.42 207.707 341.715 209.023 341.714H388.977C390.293 341.715 391.597 341.42 392.814 340.845C394.03 340.269 395.136 339.426 396.066 338.362C396.997 337.298 397.736 336.034 398.239 334.644C398.742 333.254 399.001 331.764 399 330.259V296.027C399.001 294.522 398.742 293.032 398.239 291.642C397.736 290.251 396.997 288.988 396.066 287.924C395.136 286.86 394.03 286.016 392.814 285.441C391.597 284.866 390.293 284.57 388.977 284.571ZM388.977 170.286H209.023C207.707 170.285 206.403 170.58 205.186 171.155C203.97 171.731 202.864 172.574 201.934 173.638C201.003 174.702 200.264 175.966 199.761 177.356C199.258 178.746 198.999 180.236 199 181.741V215.973C198.999 217.478 199.258 218.968 199.761 220.358C200.264 221.749 201.003 223.012 201.934 224.076C202.864 225.14 203.97 225.984 205.186 226.559C206.403 227.134 207.707 227.43 209.023 227.429H388.977C390.293 227.43 391.597 227.134 392.814 226.559C394.03 225.984 395.136 225.14 396.066 224.076C396.997 223.012 397.736 221.749 398.239 220.358C398.742 218.968 399.001 217.478 399 215.973V181.741C399.001 180.236 398.742 178.746 398.239 177.356C397.736 175.966 396.997 174.702 396.066 173.638C395.136 172.574 394.03 171.731 392.814 171.155C391.597 170.58 390.293 170.285 388.977 170.286ZM386.5 56H61.5C58.1848 56 55.0054 57.5051 52.6612 60.1842C50.317 62.8633 49 66.4969 49 70.2857V98.8571C49 102.646 50.317 106.28 52.6612 108.959C55.0054 111.638 58.1848 113.143 61.5 113.143H386.5C389.815 113.143 392.995 111.638 395.339 108.959C397.683 106.28 399 102.646 399 98.8571V70.2857C399 66.4969 397.683 62.8633 395.339 60.1842C392.995 57.5051 389.815 56 386.5 56Z" fill="white"/>
</svg>
