<svg width="512" height="512" viewBox="0 0 512 512" fill="none" xmlns="http://www.w3.org/2000/svg">
<path d="M431 256C431 366.457 352.65 456 256 456C159.35 456 81 366.457 81 256C81 145.543 159.35 56 256 56C352.65 56 431 145.543 431 256ZM235.758 361.898L365.597 213.511C370.005 208.473 370.005 200.302 365.597 195.264L349.63 177.016C345.221 171.977 338.072 171.977 333.663 177.016L227.774 298.031L178.337 241.531C173.929 236.493 166.78 236.493 162.37 241.531L146.403 259.779C141.995 264.818 141.995 272.988 146.403 278.027L219.791 361.898C224.2 366.937 231.348 366.937 235.758 361.898V361.898Z" fill="white"/>
</svg>
