<svg width="448" height="512" viewBox="0 0 448 512" fill="none" xmlns="http://www.w3.org/2000/svg">
<path d="M361.5 456H86.5C65.7969 456 49 436.804 49 413.143V98.8571C49 75.1964 65.7969 56 86.5 56H361.5C382.203 56 399 75.1964 399 98.8571V413.143C399 436.804 382.203 456 361.5 456ZM235.016 186.268L129 307.429L124.078 358.411C123.453 365.196 128.453 371 134.469 370.286L179.078 364.661L285.094 243.5C286.891 241.446 286.891 238.054 285.094 235.911L241.734 186.357C239.781 184.214 236.813 184.214 235.016 186.268ZM318.531 174.839L295.016 147.964C287.672 139.571 275.797 139.571 268.531 147.964L250.484 168.589C248.687 170.643 248.687 174.036 250.484 176.179L293.844 225.732C295.641 227.786 298.609 227.786 300.484 225.732L318.531 205.107C325.797 196.804 325.797 183.232 318.531 174.839Z" fill="white"/>
</svg>
